<?xml version="1.0" encoding="UTF-8" standalone="no"?>
<!-- Generator: Adobe Illustrator 19.0.0, SVG Export Plug-In . SVG Version: 6.00 Build 0)  -->

<svg
   xmlns:dc="http://purl.org/dc/elements/1.1/"
   xmlns:cc="http://creativecommons.org/ns#"
   xmlns:rdf="http://www.w3.org/1999/02/22-rdf-syntax-ns#"
   xmlns:svg="http://www.w3.org/2000/svg"
   xmlns="http://www.w3.org/2000/svg"
   xmlns:sodipodi="http://sodipodi.sourceforge.net/DTD/sodipodi-0.dtd"
   xmlns:inkscape="http://www.inkscape.org/namespaces/inkscape"
   version="1.1"
   id="Layer_1"
   x="0px"
   y="0px"
   viewBox="0 0 24 24"
   enable-background="new 0 0 24 24"
   xml:space="preserve"
   inkscape:version="0.91 r13725"
   sodipodi:docname="fullscreen_enter.svg"><metadata
     id="metadata16"><rdf:RDF><cc:Work
         rdf:about=""><dc:format>image/svg+xml</dc:format><dc:type
           rdf:resource="http://purl.org/dc/dcmitype/StillImage" /></cc:Work></rdf:RDF></metadata><defs
     id="defs14" /><sodipodi:namedview
     pagecolor="#ffffff"
     bordercolor="#666666"
     borderopacity="1"
     objecttolerance="10"
     gridtolerance="10"
     guidetolerance="10"
     inkscape:pageopacity="0"
     inkscape:pageshadow="2"
     inkscape:window-width="1440"
     inkscape:window-height="855"
     id="namedview12"
     showgrid="false"
     inkscape:zoom="9.8333333"
     inkscape:cx="-2.7457627"
     inkscape:cy="12"
     inkscape:window-x="0"
     inkscape:window-y="568"
     inkscape:window-maximized="1"
     inkscape:current-layer="Layer_1" /><g
     id="XMLID_889_"
     style="fill:#ffffff;fill-opacity:1"><g
       id="XMLID_896_"
       style="fill:#ffffff;fill-opacity:1"><path
         id="XMLID_897_"
         d="M9.7,8.4L3.1,1.8h3.3c0.5,0,0.9-0.4,0.9-0.9S6.9,0,6.4,0L0.9,0C0.4,0,0,0.4,0,0.9l0,5.5    c0,0.5,0.4,0.9,0.9,0.9c0.5,0,0.9-0.4,0.9-0.9V3.1l6.6,6.6c0.4,0.4,0.9,0.4,1.3,0C10.1,9.4,10.1,8.8,9.7,8.4z"
         style="fill:#ffffff;fill-opacity:1" /></g><g
       id="XMLID_894_"
       style="fill:#ffffff;fill-opacity:1"><path
         id="XMLID_895_"
         d="M15.6,9.7l6.6-6.6v3.3c0,0.5,0.4,0.9,0.9,0.9c0.5,0,0.9-0.4,0.9-0.9V0.9C24,0.4,23.6,0,23.1,0l-5.5,0    c-0.5,0-0.9,0.4-0.9,0.9c0,0.5,0.4,0.9,0.9,0.9h3.3l-6.6,6.6c-0.4,0.4-0.4,0.9,0,1.3C14.6,10.1,15.2,10.1,15.6,9.7z"
         style="fill:#ffffff;fill-opacity:1" /></g><g
       id="XMLID_892_"
       style="fill:#ffffff;fill-opacity:1"><path
         id="XMLID_893_"
         d="M14.3,15.6l6.6,6.6h-3.3c-0.5,0-0.9,0.4-0.9,0.9c0,0.5,0.4,0.9,0.9,0.9h5.5c0.5,0,0.9-0.4,0.9-0.9v-5.5    c0-0.5-0.4-0.9-0.9-0.9c-0.5,0-0.9,0.4-0.9,0.9v3.3l-6.6-6.6c-0.4-0.4-0.9-0.4-1.3,0C13.9,14.6,13.9,15.2,14.3,15.6z"
         style="fill:#ffffff;fill-opacity:1" /></g><g
       id="XMLID_890_"
       style="fill:#ffffff;fill-opacity:1"><path
         id="XMLID_891_"
         d="M8.4,14.3l-6.6,6.6v-3.3c0-0.5-0.4-0.9-0.9-0.9S0,17.1,0,17.6l0,5.5C0,23.6,0.4,24,0.9,24h5.5    c0.5,0,0.9-0.4,0.9-0.9c0-0.5-0.4-0.9-0.9-0.9H3.1l6.6-6.6c0.4-0.4,0.4-0.9,0-1.3C9.4,13.9,8.8,13.9,8.4,14.3z"
         style="fill:#ffffff;fill-opacity:1" /></g></g></svg>